<?xml version="1.0" encoding="iso-8859-1"?>
<!-- Generator: Adobe Illustrator 18.0.0, SVG Export Plug-In . SVG Version: 6.00 Build 0)  -->
<!DOCTYPE svg PUBLIC "-//W3C//DTD SVG 1.1//EN" "http://www.w3.org/Graphics/SVG/1.1/DTD/svg11.dtd">
<svg version="1.1" id="Capa_1" xmlns="http://www.w3.org/2000/svg" xmlns:xlink="http://www.w3.org/1999/xlink" x="0px" y="0px"
	 viewBox="0 0 185.849 185.849" style="enable-background:new 0 0 185.849 185.849;" xml:space="preserve">
<path d="M114.366,185.849c-14.691,0-29.026-5.62-39.802-15.913c-3.253-3.108-6.134-6.594-8.584-10.383
	c-19.888-6.901-36.128-20.922-45.865-39.648C-0.757,79.758,14.924,30.114,55.071,9.242C95.216-11.63,144.86,4.05,165.734,44.197l0,0
	c20.872,40.147,5.19,89.791-34.956,110.663c-7.355,3.824-15.113,6.481-23.157,7.939c0.759,0.836,1.546,1.644,2.36,2.422
	c4.618,4.412,9.961,7.792,15.88,10.049c2.091,0.797,3.397,2.887,3.199,5.116c-0.199,2.229-1.855,4.055-4.055,4.469
	C121.469,185.522,117.906,185.849,114.366,185.849z"/>
<g>
</g>
<g>
</g>
<g>
</g>
<g>
</g>
<g>
</g>
<g>
</g>
<g>
</g>
<g>
</g>
<g>
</g>
<g>
</g>
<g>
</g>
<g>
</g>
<g>
</g>
<g>
</g>
<g>
</g>
</svg>
